<mxfile host="app.diagrams.net" agent="Mozilla/5.0 (Windows NT 10.0; Win64; x64) AppleWebKit/537.36 (KHTML, like Gecko) Chrome/129.0.0.0 Safari/537.36 Edg/129.0.0.0" version="24.7.17" pages="2">
  <diagram name="Page-1" id="Kt4_uSkjWrbB8tqFR44q">
    <mxGraphModel dx="2749" dy="2047" grid="1" gridSize="10" guides="1" tooltips="1" connect="1" arrows="1" fold="1" page="1" pageScale="1" pageWidth="850" pageHeight="1100" math="0" shadow="0">
      <root>
        <mxCell id="0" />
        <mxCell id="1" parent="0" />
        <mxCell id="VjKpLaFIwRTDovI-EPHs-1" value="DVD" style="rounded=1;arcSize=10;whiteSpace=wrap;html=1;align=center;" vertex="1" parent="1">
          <mxGeometry x="-290" y="95" width="100" height="40" as="geometry" />
        </mxCell>
        <mxCell id="VjKpLaFIwRTDovI-EPHs-2" value="Brunch" style="rounded=1;arcSize=10;whiteSpace=wrap;html=1;align=center;" vertex="1" parent="1">
          <mxGeometry x="60" y="-260" width="100" height="40" as="geometry" />
        </mxCell>
        <mxCell id="VjKpLaFIwRTDovI-EPHs-3" value="Manager" style="rounded=1;arcSize=10;whiteSpace=wrap;html=1;align=center;" vertex="1" parent="1">
          <mxGeometry x="822.5" y="-240" width="100" height="40" as="geometry" />
        </mxCell>
        <mxCell id="VjKpLaFIwRTDovI-EPHs-4" value="Staff" style="rounded=1;arcSize=10;whiteSpace=wrap;html=1;align=center;" vertex="1" parent="1">
          <mxGeometry x="-170" y="460" width="100" height="40" as="geometry" />
        </mxCell>
        <mxCell id="VjKpLaFIwRTDovI-EPHs-5" value="Member" style="rounded=1;arcSize=10;whiteSpace=wrap;html=1;align=center;" vertex="1" parent="1">
          <mxGeometry x="280" y="180" width="100" height="40" as="geometry" />
        </mxCell>
        <mxCell id="VjKpLaFIwRTDovI-EPHs-6" value="Rental" style="rounded=1;arcSize=10;whiteSpace=wrap;html=1;align=center;" vertex="1" parent="1">
          <mxGeometry x="872.5" y="130" width="100" height="40" as="geometry" />
        </mxCell>
        <mxCell id="VjKpLaFIwRTDovI-EPHs-7" value="brunchID" style="ellipse;whiteSpace=wrap;html=1;align=center;fontStyle=4;" vertex="1" parent="1">
          <mxGeometry x="140" y="-520" width="100" height="40" as="geometry" />
        </mxCell>
        <mxCell id="VjKpLaFIwRTDovI-EPHs-8" value="" style="endArrow=none;html=1;rounded=0;exitX=0.75;exitY=0;exitDx=0;exitDy=0;entryX=0.5;entryY=1;entryDx=0;entryDy=0;" edge="1" parent="1" source="VjKpLaFIwRTDovI-EPHs-2" target="VjKpLaFIwRTDovI-EPHs-7">
          <mxGeometry relative="1" as="geometry">
            <mxPoint x="50" y="-60" as="sourcePoint" />
            <mxPoint x="210" y="-60" as="targetPoint" />
          </mxGeometry>
        </mxCell>
        <mxCell id="VjKpLaFIwRTDovI-EPHs-9" value="address" style="ellipse;whiteSpace=wrap;html=1;align=center;" vertex="1" parent="1">
          <mxGeometry x="-160" y="-440" width="100" height="40" as="geometry" />
        </mxCell>
        <mxCell id="VjKpLaFIwRTDovI-EPHs-10" value="postalcode" style="ellipse;whiteSpace=wrap;html=1;align=center;" vertex="1" parent="1">
          <mxGeometry x="-140" y="-520" width="100" height="40" as="geometry" />
        </mxCell>
        <mxCell id="VjKpLaFIwRTDovI-EPHs-12" value="city&amp;nbsp;" style="ellipse;whiteSpace=wrap;html=1;align=center;" vertex="1" parent="1">
          <mxGeometry x="-160" y="-350" width="100" height="40" as="geometry" />
        </mxCell>
        <mxCell id="VjKpLaFIwRTDovI-EPHs-13" value="country" style="ellipse;whiteSpace=wrap;html=1;align=center;" vertex="1" parent="1">
          <mxGeometry x="210" y="-360" width="100" height="35" as="geometry" />
        </mxCell>
        <mxCell id="VjKpLaFIwRTDovI-EPHs-14" value="phonenumber" style="ellipse;whiteSpace=wrap;html=1;align=center;" vertex="1" parent="1">
          <mxGeometry x="160" y="-440" width="100" height="40" as="geometry" />
        </mxCell>
        <mxCell id="VjKpLaFIwRTDovI-EPHs-15" value="" style="endArrow=none;html=1;rounded=0;entryX=0.5;entryY=0;entryDx=0;entryDy=0;" edge="1" parent="1" source="VjKpLaFIwRTDovI-EPHs-2" target="VjKpLaFIwRTDovI-EPHs-12">
          <mxGeometry relative="1" as="geometry">
            <mxPoint x="50" y="-90" as="sourcePoint" />
            <mxPoint x="130" y="-120" as="targetPoint" />
          </mxGeometry>
        </mxCell>
        <mxCell id="VjKpLaFIwRTDovI-EPHs-16" value="" style="endArrow=none;html=1;rounded=0;exitX=1;exitY=0;exitDx=0;exitDy=0;" edge="1" parent="1" source="VjKpLaFIwRTDovI-EPHs-2" target="VjKpLaFIwRTDovI-EPHs-14">
          <mxGeometry relative="1" as="geometry">
            <mxPoint x="50" y="-90" as="sourcePoint" />
            <mxPoint x="210" y="-90" as="targetPoint" />
          </mxGeometry>
        </mxCell>
        <mxCell id="VjKpLaFIwRTDovI-EPHs-17" value="" style="endArrow=none;html=1;rounded=0;exitX=1;exitY=0.25;exitDx=0;exitDy=0;entryX=0;entryY=0;entryDx=0;entryDy=0;" edge="1" parent="1" source="VjKpLaFIwRTDovI-EPHs-2" target="VjKpLaFIwRTDovI-EPHs-13">
          <mxGeometry relative="1" as="geometry">
            <mxPoint x="50" y="-90" as="sourcePoint" />
            <mxPoint x="210" y="-90" as="targetPoint" />
          </mxGeometry>
        </mxCell>
        <mxCell id="VjKpLaFIwRTDovI-EPHs-18" value="" style="endArrow=none;html=1;rounded=0;exitX=0.25;exitY=0;exitDx=0;exitDy=0;" edge="1" parent="1" source="VjKpLaFIwRTDovI-EPHs-2" target="VjKpLaFIwRTDovI-EPHs-9">
          <mxGeometry relative="1" as="geometry">
            <mxPoint x="50" y="-90" as="sourcePoint" />
            <mxPoint x="210" y="-90" as="targetPoint" />
          </mxGeometry>
        </mxCell>
        <mxCell id="VjKpLaFIwRTDovI-EPHs-19" value="" style="endArrow=none;html=1;rounded=0;exitX=0.5;exitY=0;exitDx=0;exitDy=0;" edge="1" parent="1" source="VjKpLaFIwRTDovI-EPHs-2" target="VjKpLaFIwRTDovI-EPHs-10">
          <mxGeometry relative="1" as="geometry">
            <mxPoint x="70" y="-220" as="sourcePoint" />
            <mxPoint x="210" y="-90" as="targetPoint" />
          </mxGeometry>
        </mxCell>
        <mxCell id="VjKpLaFIwRTDovI-EPHs-20" value="catalognumberID" style="ellipse;whiteSpace=wrap;html=1;align=center;fontStyle=4;" vertex="1" parent="1">
          <mxGeometry x="-290" y="25" width="100" height="40" as="geometry" />
        </mxCell>
        <mxCell id="VjKpLaFIwRTDovI-EPHs-21" value="" style="endArrow=none;html=1;rounded=0;exitX=0.5;exitY=1;exitDx=0;exitDy=0;entryX=0.5;entryY=0;entryDx=0;entryDy=0;" edge="1" parent="1" source="VjKpLaFIwRTDovI-EPHs-20" target="VjKpLaFIwRTDovI-EPHs-1">
          <mxGeometry relative="1" as="geometry">
            <mxPoint x="-320" y="184" as="sourcePoint" />
            <mxPoint x="-160" y="184" as="targetPoint" />
          </mxGeometry>
        </mxCell>
        <mxCell id="VjKpLaFIwRTDovI-EPHs-22" value="DVDnumber" style="ellipse;whiteSpace=wrap;html=1;align=center;" vertex="1" parent="1">
          <mxGeometry x="-410" y="135" width="100" height="40" as="geometry" />
        </mxCell>
        <mxCell id="VjKpLaFIwRTDovI-EPHs-23" value="cathegory" style="ellipse;whiteSpace=wrap;html=1;align=center;" vertex="1" parent="1">
          <mxGeometry x="-410" y="200" width="100" height="40" as="geometry" />
        </mxCell>
        <mxCell id="VjKpLaFIwRTDovI-EPHs-24" value="DVDtitle" style="ellipse;whiteSpace=wrap;html=1;align=center;" vertex="1" parent="1">
          <mxGeometry x="-300" y="215" width="100" height="40" as="geometry" />
        </mxCell>
        <mxCell id="VjKpLaFIwRTDovI-EPHs-25" value="status" style="ellipse;whiteSpace=wrap;html=1;align=center;" vertex="1" parent="1">
          <mxGeometry x="-190" y="205" width="100" height="40" as="geometry" />
        </mxCell>
        <mxCell id="VjKpLaFIwRTDovI-EPHs-26" value="" style="endArrow=none;html=1;rounded=0;entryX=0.5;entryY=0;entryDx=0;entryDy=0;exitX=0.5;exitY=1;exitDx=0;exitDy=0;" edge="1" parent="1" source="VjKpLaFIwRTDovI-EPHs-1" target="VjKpLaFIwRTDovI-EPHs-24">
          <mxGeometry relative="1" as="geometry">
            <mxPoint x="-230" y="135" as="sourcePoint" />
            <mxPoint x="140" y="265" as="targetPoint" />
          </mxGeometry>
        </mxCell>
        <mxCell id="VjKpLaFIwRTDovI-EPHs-27" value="" style="endArrow=none;html=1;rounded=0;exitX=0.5;exitY=0;exitDx=0;exitDy=0;entryX=0.75;entryY=1;entryDx=0;entryDy=0;" edge="1" parent="1" source="VjKpLaFIwRTDovI-EPHs-25" target="VjKpLaFIwRTDovI-EPHs-1">
          <mxGeometry relative="1" as="geometry">
            <mxPoint x="-20" y="265" as="sourcePoint" />
            <mxPoint x="140" y="265" as="targetPoint" />
          </mxGeometry>
        </mxCell>
        <mxCell id="VjKpLaFIwRTDovI-EPHs-28" value="" style="endArrow=none;html=1;rounded=0;entryX=0;entryY=1;entryDx=0;entryDy=0;" edge="1" parent="1" source="VjKpLaFIwRTDovI-EPHs-22" target="VjKpLaFIwRTDovI-EPHs-1">
          <mxGeometry relative="1" as="geometry">
            <mxPoint x="-20" y="265" as="sourcePoint" />
            <mxPoint x="140" y="265" as="targetPoint" />
          </mxGeometry>
        </mxCell>
        <mxCell id="VjKpLaFIwRTDovI-EPHs-30" value="" style="endArrow=none;html=1;rounded=0;exitX=1;exitY=0.5;exitDx=0;exitDy=0;entryX=0.25;entryY=1;entryDx=0;entryDy=0;" edge="1" parent="1" source="VjKpLaFIwRTDovI-EPHs-23" target="VjKpLaFIwRTDovI-EPHs-1">
          <mxGeometry relative="1" as="geometry">
            <mxPoint x="-20" y="265" as="sourcePoint" />
            <mxPoint x="140" y="265" as="targetPoint" />
          </mxGeometry>
        </mxCell>
        <mxCell id="VjKpLaFIwRTDovI-EPHs-32" value="staffID" style="ellipse;whiteSpace=wrap;html=1;align=center;fontStyle=4;" vertex="1" parent="1">
          <mxGeometry x="-180" y="380" width="100" height="40" as="geometry" />
        </mxCell>
        <mxCell id="VjKpLaFIwRTDovI-EPHs-33" value="salary" style="ellipse;whiteSpace=wrap;html=1;align=center;" vertex="1" parent="1">
          <mxGeometry x="-70" y="510" width="100" height="40" as="geometry" />
        </mxCell>
        <mxCell id="VjKpLaFIwRTDovI-EPHs-34" value="position" style="ellipse;whiteSpace=wrap;html=1;align=center;" vertex="1" parent="1">
          <mxGeometry x="-150" y="560" width="100" height="40" as="geometry" />
        </mxCell>
        <mxCell id="VjKpLaFIwRTDovI-EPHs-35" value="name" style="ellipse;whiteSpace=wrap;html=1;align=center;" vertex="1" parent="1">
          <mxGeometry x="-260" y="520" width="100" height="40" as="geometry" />
        </mxCell>
        <mxCell id="VjKpLaFIwRTDovI-EPHs-36" value="" style="endArrow=none;html=1;rounded=0;exitX=0.5;exitY=0;exitDx=0;exitDy=0;entryX=0.5;entryY=1;entryDx=0;entryDy=0;" edge="1" parent="1" source="VjKpLaFIwRTDovI-EPHs-4" target="VjKpLaFIwRTDovI-EPHs-32">
          <mxGeometry relative="1" as="geometry">
            <mxPoint x="120" y="580" as="sourcePoint" />
            <mxPoint x="280" y="580" as="targetPoint" />
          </mxGeometry>
        </mxCell>
        <mxCell id="VjKpLaFIwRTDovI-EPHs-37" value="" style="endArrow=none;html=1;rounded=0;exitX=0.5;exitY=0;exitDx=0;exitDy=0;entryX=1;entryY=0.5;entryDx=0;entryDy=0;" edge="1" parent="1" source="VjKpLaFIwRTDovI-EPHs-33" target="VjKpLaFIwRTDovI-EPHs-4">
          <mxGeometry relative="1" as="geometry">
            <mxPoint x="120" y="580" as="sourcePoint" />
            <mxPoint x="280" y="580" as="targetPoint" />
          </mxGeometry>
        </mxCell>
        <mxCell id="VjKpLaFIwRTDovI-EPHs-38" value="" style="endArrow=none;html=1;rounded=0;exitX=0.5;exitY=0;exitDx=0;exitDy=0;entryX=0.75;entryY=1;entryDx=0;entryDy=0;" edge="1" parent="1" source="VjKpLaFIwRTDovI-EPHs-34" target="VjKpLaFIwRTDovI-EPHs-4">
          <mxGeometry relative="1" as="geometry">
            <mxPoint x="120" y="580" as="sourcePoint" />
            <mxPoint x="280" y="580" as="targetPoint" />
          </mxGeometry>
        </mxCell>
        <mxCell id="VjKpLaFIwRTDovI-EPHs-39" value="" style="endArrow=none;html=1;rounded=0;exitX=0.5;exitY=0;exitDx=0;exitDy=0;entryX=0;entryY=1;entryDx=0;entryDy=0;" edge="1" parent="1" source="VjKpLaFIwRTDovI-EPHs-35" target="VjKpLaFIwRTDovI-EPHs-4">
          <mxGeometry relative="1" as="geometry">
            <mxPoint x="120" y="580" as="sourcePoint" />
            <mxPoint x="280" y="580" as="targetPoint" />
          </mxGeometry>
        </mxCell>
        <mxCell id="VjKpLaFIwRTDovI-EPHs-40" value="membershipnumberID" style="ellipse;whiteSpace=wrap;html=1;align=center;fontStyle=4;" vertex="1" parent="1">
          <mxGeometry x="380" y="295" width="160" height="40" as="geometry" />
        </mxCell>
        <mxCell id="VjKpLaFIwRTDovI-EPHs-42" value="registrationdate" style="ellipse;whiteSpace=wrap;html=1;align=center;" vertex="1" parent="1">
          <mxGeometry x="310" y="360" width="100" height="40" as="geometry" />
        </mxCell>
        <mxCell id="VjKpLaFIwRTDovI-EPHs-43" value="address" style="ellipse;whiteSpace=wrap;html=1;align=center;" vertex="1" parent="1">
          <mxGeometry x="200" y="360" width="100" height="40" as="geometry" />
        </mxCell>
        <mxCell id="VjKpLaFIwRTDovI-EPHs-44" value="lastname" style="ellipse;whiteSpace=wrap;html=1;align=center;" vertex="1" parent="1">
          <mxGeometry x="120" y="310" width="100" height="40" as="geometry" />
        </mxCell>
        <mxCell id="VjKpLaFIwRTDovI-EPHs-45" value="firstname" style="ellipse;whiteSpace=wrap;html=1;align=center;" vertex="1" parent="1">
          <mxGeometry x="120" y="255" width="100" height="40" as="geometry" />
        </mxCell>
        <mxCell id="VjKpLaFIwRTDovI-EPHs-46" value="" style="endArrow=none;html=1;rounded=0;exitX=1;exitY=1;exitDx=0;exitDy=0;entryX=0.5;entryY=0;entryDx=0;entryDy=0;" edge="1" parent="1" source="VjKpLaFIwRTDovI-EPHs-5" target="VjKpLaFIwRTDovI-EPHs-40">
          <mxGeometry relative="1" as="geometry">
            <mxPoint x="250" y="180" as="sourcePoint" />
            <mxPoint x="410" y="180" as="targetPoint" />
          </mxGeometry>
        </mxCell>
        <mxCell id="VjKpLaFIwRTDovI-EPHs-47" value="" style="endArrow=none;html=1;rounded=0;exitX=0.5;exitY=0;exitDx=0;exitDy=0;entryX=0;entryY=0.5;entryDx=0;entryDy=0;" edge="1" parent="1" source="VjKpLaFIwRTDovI-EPHs-45" target="VjKpLaFIwRTDovI-EPHs-5">
          <mxGeometry relative="1" as="geometry">
            <mxPoint x="250" y="180" as="sourcePoint" />
            <mxPoint x="410" y="180" as="targetPoint" />
          </mxGeometry>
        </mxCell>
        <mxCell id="VjKpLaFIwRTDovI-EPHs-48" value="" style="endArrow=none;html=1;rounded=0;entryX=1;entryY=0;entryDx=0;entryDy=0;exitX=0.25;exitY=1;exitDx=0;exitDy=0;" edge="1" parent="1" source="VjKpLaFIwRTDovI-EPHs-5" target="VjKpLaFIwRTDovI-EPHs-44">
          <mxGeometry relative="1" as="geometry">
            <mxPoint x="250" y="180" as="sourcePoint" />
            <mxPoint x="410" y="180" as="targetPoint" />
          </mxGeometry>
        </mxCell>
        <mxCell id="VjKpLaFIwRTDovI-EPHs-49" value="" style="endArrow=none;html=1;rounded=0;entryX=0;entryY=0;entryDx=0;entryDy=0;exitX=0.5;exitY=1;exitDx=0;exitDy=0;" edge="1" parent="1" source="VjKpLaFIwRTDovI-EPHs-5" target="VjKpLaFIwRTDovI-EPHs-43">
          <mxGeometry relative="1" as="geometry">
            <mxPoint x="250" y="180" as="sourcePoint" />
            <mxPoint x="410" y="180" as="targetPoint" />
          </mxGeometry>
        </mxCell>
        <mxCell id="VjKpLaFIwRTDovI-EPHs-50" value="" style="endArrow=none;html=1;rounded=0;entryX=0.5;entryY=0;entryDx=0;entryDy=0;exitX=0.75;exitY=1;exitDx=0;exitDy=0;" edge="1" parent="1" source="VjKpLaFIwRTDovI-EPHs-5" target="VjKpLaFIwRTDovI-EPHs-42">
          <mxGeometry relative="1" as="geometry">
            <mxPoint x="250" y="180" as="sourcePoint" />
            <mxPoint x="410" y="180" as="targetPoint" />
          </mxGeometry>
        </mxCell>
        <mxCell id="VjKpLaFIwRTDovI-EPHs-51" value="rental number ID" style="ellipse;whiteSpace=wrap;html=1;align=center;fontStyle=4;" vertex="1" parent="1">
          <mxGeometry x="852.5" y="60" width="140" height="40" as="geometry" />
        </mxCell>
        <mxCell id="VjKpLaFIwRTDovI-EPHs-52" value="returDate" style="ellipse;whiteSpace=wrap;html=1;align=center;" vertex="1" parent="1">
          <mxGeometry x="832.5" y="280" width="100" height="40" as="geometry" />
        </mxCell>
        <mxCell id="VjKpLaFIwRTDovI-EPHs-53" value="rentalDate" style="ellipse;whiteSpace=wrap;html=1;align=center;" vertex="1" parent="1">
          <mxGeometry x="932.5" y="330" width="100" height="40" as="geometry" />
        </mxCell>
        <mxCell id="VjKpLaFIwRTDovI-EPHs-54" value="DVDtitle" style="ellipse;whiteSpace=wrap;html=1;align=center;" vertex="1" parent="1">
          <mxGeometry x="1072.5" y="340" width="100" height="40" as="geometry" />
        </mxCell>
        <mxCell id="VjKpLaFIwRTDovI-EPHs-55" value="DVDnumber" style="ellipse;whiteSpace=wrap;html=1;align=center;" vertex="1" parent="1">
          <mxGeometry x="1112.5" y="260" width="100" height="40" as="geometry" />
        </mxCell>
        <mxCell id="VjKpLaFIwRTDovI-EPHs-56" value="membershipnumber" style="ellipse;whiteSpace=wrap;html=1;align=center;" vertex="1" parent="1">
          <mxGeometry x="1092.5" y="180" width="130" height="40" as="geometry" />
        </mxCell>
        <mxCell id="VjKpLaFIwRTDovI-EPHs-57" value="fullname" style="ellipse;whiteSpace=wrap;html=1;align=center;" vertex="1" parent="1">
          <mxGeometry x="1122.5" y="100" width="100" height="40" as="geometry" />
        </mxCell>
        <mxCell id="VjKpLaFIwRTDovI-EPHs-58" value="" style="endArrow=none;html=1;rounded=0;exitX=0.25;exitY=0;exitDx=0;exitDy=0;entryX=0.5;entryY=1;entryDx=0;entryDy=0;" edge="1" parent="1" source="VjKpLaFIwRTDovI-EPHs-6" target="VjKpLaFIwRTDovI-EPHs-51">
          <mxGeometry relative="1" as="geometry">
            <mxPoint x="612.5" y="20" as="sourcePoint" />
            <mxPoint x="772.5" y="20" as="targetPoint" />
          </mxGeometry>
        </mxCell>
        <mxCell id="VjKpLaFIwRTDovI-EPHs-59" value="" style="endArrow=none;html=1;rounded=0;exitX=0.5;exitY=0;exitDx=0;exitDy=0;entryX=0;entryY=1;entryDx=0;entryDy=0;" edge="1" parent="1" source="VjKpLaFIwRTDovI-EPHs-52" target="VjKpLaFIwRTDovI-EPHs-6">
          <mxGeometry relative="1" as="geometry">
            <mxPoint x="612.5" y="120" as="sourcePoint" />
            <mxPoint x="772.5" y="120" as="targetPoint" />
          </mxGeometry>
        </mxCell>
        <mxCell id="VjKpLaFIwRTDovI-EPHs-60" value="" style="endArrow=none;html=1;rounded=0;exitX=0.5;exitY=0;exitDx=0;exitDy=0;entryX=0.25;entryY=1;entryDx=0;entryDy=0;" edge="1" parent="1" source="VjKpLaFIwRTDovI-EPHs-53" target="VjKpLaFIwRTDovI-EPHs-6">
          <mxGeometry relative="1" as="geometry">
            <mxPoint x="612.5" y="120" as="sourcePoint" />
            <mxPoint x="772.5" y="120" as="targetPoint" />
          </mxGeometry>
        </mxCell>
        <mxCell id="VjKpLaFIwRTDovI-EPHs-61" value="" style="endArrow=none;html=1;rounded=0;exitX=0;exitY=0;exitDx=0;exitDy=0;entryX=0.5;entryY=1;entryDx=0;entryDy=0;" edge="1" parent="1" source="VjKpLaFIwRTDovI-EPHs-54" target="VjKpLaFIwRTDovI-EPHs-6">
          <mxGeometry relative="1" as="geometry">
            <mxPoint x="612.5" y="120" as="sourcePoint" />
            <mxPoint x="772.5" y="120" as="targetPoint" />
          </mxGeometry>
        </mxCell>
        <mxCell id="VjKpLaFIwRTDovI-EPHs-62" value="" style="endArrow=none;html=1;rounded=0;exitX=0.75;exitY=1;exitDx=0;exitDy=0;entryX=0;entryY=0.5;entryDx=0;entryDy=0;" edge="1" parent="1" source="VjKpLaFIwRTDovI-EPHs-6" target="VjKpLaFIwRTDovI-EPHs-55">
          <mxGeometry relative="1" as="geometry">
            <mxPoint x="612.5" y="120" as="sourcePoint" />
            <mxPoint x="772.5" y="120" as="targetPoint" />
          </mxGeometry>
        </mxCell>
        <mxCell id="VjKpLaFIwRTDovI-EPHs-63" value="" style="endArrow=none;html=1;rounded=0;exitX=1;exitY=0.75;exitDx=0;exitDy=0;entryX=0;entryY=0.5;entryDx=0;entryDy=0;" edge="1" parent="1" source="VjKpLaFIwRTDovI-EPHs-6" target="VjKpLaFIwRTDovI-EPHs-56">
          <mxGeometry relative="1" as="geometry">
            <mxPoint x="612.5" y="120" as="sourcePoint" />
            <mxPoint x="772.5" y="120" as="targetPoint" />
          </mxGeometry>
        </mxCell>
        <mxCell id="VjKpLaFIwRTDovI-EPHs-64" value="" style="endArrow=none;html=1;rounded=0;exitX=1;exitY=0.25;exitDx=0;exitDy=0;entryX=0;entryY=1;entryDx=0;entryDy=0;" edge="1" parent="1" source="VjKpLaFIwRTDovI-EPHs-6" target="VjKpLaFIwRTDovI-EPHs-57">
          <mxGeometry relative="1" as="geometry">
            <mxPoint x="612.5" y="120" as="sourcePoint" />
            <mxPoint x="772.5" y="120" as="targetPoint" />
          </mxGeometry>
        </mxCell>
        <mxCell id="VjKpLaFIwRTDovI-EPHs-65" value="staffID" style="ellipse;whiteSpace=wrap;html=1;align=center;fontStyle=4;" vertex="1" parent="1">
          <mxGeometry x="842.5" y="-320" width="100" height="40" as="geometry" />
        </mxCell>
        <mxCell id="VjKpLaFIwRTDovI-EPHs-67" value="name" style="ellipse;whiteSpace=wrap;html=1;align=center;" vertex="1" parent="1">
          <mxGeometry x="732.5" y="-170" width="100" height="40" as="geometry" />
        </mxCell>
        <mxCell id="VjKpLaFIwRTDovI-EPHs-68" value="position" style="ellipse;whiteSpace=wrap;html=1;align=center;" vertex="1" parent="1">
          <mxGeometry x="862.5" y="-125" width="100" height="40" as="geometry" />
        </mxCell>
        <mxCell id="VjKpLaFIwRTDovI-EPHs-69" value="salary" style="ellipse;whiteSpace=wrap;html=1;align=center;" vertex="1" parent="1">
          <mxGeometry x="937.5" y="-195" width="100" height="40" as="geometry" />
        </mxCell>
        <mxCell id="VjKpLaFIwRTDovI-EPHs-70" value="" style="endArrow=none;html=1;rounded=0;exitX=0.5;exitY=1;exitDx=0;exitDy=0;entryX=0.5;entryY=0;entryDx=0;entryDy=0;" edge="1" parent="1" source="VjKpLaFIwRTDovI-EPHs-65" target="VjKpLaFIwRTDovI-EPHs-3">
          <mxGeometry relative="1" as="geometry">
            <mxPoint x="442.5" y="-90" as="sourcePoint" />
            <mxPoint x="602.5" y="-90" as="targetPoint" />
          </mxGeometry>
        </mxCell>
        <mxCell id="VjKpLaFIwRTDovI-EPHs-71" value="" style="endArrow=none;html=1;rounded=0;entryX=1;entryY=0;entryDx=0;entryDy=0;exitX=0.25;exitY=1;exitDx=0;exitDy=0;" edge="1" parent="1" source="VjKpLaFIwRTDovI-EPHs-3" target="VjKpLaFIwRTDovI-EPHs-67">
          <mxGeometry relative="1" as="geometry">
            <mxPoint x="442.5" y="-90" as="sourcePoint" />
            <mxPoint x="602.5" y="-90" as="targetPoint" />
          </mxGeometry>
        </mxCell>
        <mxCell id="VjKpLaFIwRTDovI-EPHs-72" value="" style="endArrow=none;html=1;rounded=0;exitX=0.5;exitY=0;exitDx=0;exitDy=0;entryX=0.5;entryY=1;entryDx=0;entryDy=0;" edge="1" parent="1" source="VjKpLaFIwRTDovI-EPHs-68" target="VjKpLaFIwRTDovI-EPHs-3">
          <mxGeometry relative="1" as="geometry">
            <mxPoint x="442.5" y="-90" as="sourcePoint" />
            <mxPoint x="602.5" y="-90" as="targetPoint" />
          </mxGeometry>
        </mxCell>
        <mxCell id="VjKpLaFIwRTDovI-EPHs-73" value="" style="endArrow=none;html=1;rounded=0;exitX=1;exitY=1;exitDx=0;exitDy=0;entryX=0.5;entryY=0;entryDx=0;entryDy=0;" edge="1" parent="1" source="VjKpLaFIwRTDovI-EPHs-3" target="VjKpLaFIwRTDovI-EPHs-69">
          <mxGeometry relative="1" as="geometry">
            <mxPoint x="442.5" y="-90" as="sourcePoint" />
            <mxPoint x="602.5" y="-90" as="targetPoint" />
          </mxGeometry>
        </mxCell>
        <mxCell id="VjKpLaFIwRTDovI-EPHs-100" value="" style="edgeStyle=entityRelationEdgeStyle;fontSize=12;html=1;endArrow=ERoneToMany;rounded=0;exitX=1;exitY=0.25;exitDx=0;exitDy=0;" edge="1" parent="1" source="VjKpLaFIwRTDovI-EPHs-4" target="VjKpLaFIwRTDovI-EPHs-2">
          <mxGeometry width="100" height="100" relative="1" as="geometry">
            <mxPoint x="30" y="300" as="sourcePoint" />
            <mxPoint x="130" y="200" as="targetPoint" />
          </mxGeometry>
        </mxCell>
        <mxCell id="VjKpLaFIwRTDovI-EPHs-101" value="" style="edgeStyle=entityRelationEdgeStyle;fontSize=12;html=1;endArrow=ERmandOne;startArrow=ERmandOne;rounded=0;exitX=1;exitY=0.5;exitDx=0;exitDy=0;entryX=0;entryY=0.25;entryDx=0;entryDy=0;" edge="1" parent="1" source="VjKpLaFIwRTDovI-EPHs-2" target="VjKpLaFIwRTDovI-EPHs-3">
          <mxGeometry width="100" height="100" relative="1" as="geometry">
            <mxPoint x="370" y="300" as="sourcePoint" />
            <mxPoint x="470" y="200" as="targetPoint" />
          </mxGeometry>
        </mxCell>
        <mxCell id="VjKpLaFIwRTDovI-EPHs-102" value="" style="edgeStyle=entityRelationEdgeStyle;fontSize=12;html=1;endArrow=ERoneToMany;rounded=0;entryX=1;entryY=0.75;entryDx=0;entryDy=0;exitX=0.4;exitY=0;exitDx=0;exitDy=0;exitPerimeter=0;" edge="1" parent="1" source="VjKpLaFIwRTDovI-EPHs-5" target="VjKpLaFIwRTDovI-EPHs-2">
          <mxGeometry width="100" height="100" relative="1" as="geometry">
            <mxPoint x="250" y="250" as="sourcePoint" />
            <mxPoint x="470" y="270" as="targetPoint" />
          </mxGeometry>
        </mxCell>
        <mxCell id="VjKpLaFIwRTDovI-EPHs-103" value="" style="edgeStyle=entityRelationEdgeStyle;fontSize=12;html=1;endArrow=ERoneToMany;rounded=0;exitX=1;exitY=0.5;exitDx=0;exitDy=0;entryX=0;entryY=0.25;entryDx=0;entryDy=0;" edge="1" parent="1" source="VjKpLaFIwRTDovI-EPHs-1" target="VjKpLaFIwRTDovI-EPHs-2">
          <mxGeometry width="100" height="100" relative="1" as="geometry">
            <mxPoint x="370" y="260" as="sourcePoint" />
            <mxPoint x="470" y="160" as="targetPoint" />
          </mxGeometry>
        </mxCell>
        <mxCell id="VjKpLaFIwRTDovI-EPHs-104" value="" style="edgeStyle=entityRelationEdgeStyle;fontSize=12;html=1;endArrow=ERoneToMany;rounded=0;exitX=1;exitY=1;exitDx=0;exitDy=0;entryX=0;entryY=0.25;entryDx=0;entryDy=0;" edge="1" parent="1" source="VjKpLaFIwRTDovI-EPHs-1" target="VjKpLaFIwRTDovI-EPHs-6">
          <mxGeometry width="100" height="100" relative="1" as="geometry">
            <mxPoint x="370" y="260" as="sourcePoint" />
            <mxPoint x="470" y="160" as="targetPoint" />
          </mxGeometry>
        </mxCell>
        <mxCell id="VjKpLaFIwRTDovI-EPHs-105" value="" style="edgeStyle=entityRelationEdgeStyle;fontSize=12;html=1;endArrow=ERoneToMany;rounded=0;exitX=1;exitY=0.25;exitDx=0;exitDy=0;entryX=0;entryY=0.75;entryDx=0;entryDy=0;" edge="1" parent="1" source="VjKpLaFIwRTDovI-EPHs-5" target="VjKpLaFIwRTDovI-EPHs-6">
          <mxGeometry width="100" height="100" relative="1" as="geometry">
            <mxPoint x="370" y="260" as="sourcePoint" />
            <mxPoint x="470" y="160" as="targetPoint" />
          </mxGeometry>
        </mxCell>
      </root>
    </mxGraphModel>
  </diagram>
  <diagram id="uMQCMqQtII12i-Ih_85F" name="Page-2">
    <mxGraphModel grid="1" page="1" gridSize="10" guides="1" tooltips="1" connect="1" arrows="1" fold="1" pageScale="1" pageWidth="850" pageHeight="1100" math="0" shadow="0">
      <root>
        <mxCell id="0" />
        <mxCell id="1" parent="0" />
      </root>
    </mxGraphModel>
  </diagram>
</mxfile>
